<svg width="244" height="62" viewBox="0 0 244 62" fill="none" xmlns="http://www.w3.org/2000/svg">
<path d="M24.8582 0.478516C24.7796 3.99055 24.6437 10.0577 24.4277 19.7758L60.0084 0.478516H24.8589H24.8582Z" fill="url(#paint0_linear_111_40)"/>
<path d="M48.8348 20.0465C49.3828 19.8089 49.5369 19.4897 49.6453 18.9478C49.672 18.8246 49.6987 18.7266 49.7002 18.6271C49.7567 18.2322 49.7125 17.9597 49.398 17.5834C49.1347 17.1335 48.8646 17.0303 48.3731 16.8982C47.8808 16.7905 47.5847 16.7861 47.1596 17.0756L28.2184 27.5078C27.3209 27.9376 26.1319 28.115 25.2459 27.9265C24.3354 27.7379 23.3341 27.078 22.706 26.3007C22.2252 25.551 21.8978 24.5555 21.9139 23.6661C21.8902 23.6164 21.891 23.5667 21.8917 23.5177C22.1352 11.6171 22.2939 4.44534 22.3848 0.480469H3.27183C1.138 0.480469 -0.195262 2.7268 0.871654 4.52476L19.9762 36.7121L48.8363 20.0479L48.8348 20.0465Z" fill="url(#paint1_linear_111_40)"/>
<path d="M49.5787 22.5811L21.2871 38.9223L34.0954 60.5015C35.1624 62.2988 37.8297 62.2988 38.8958 60.5015L49.1315 43.2561C49.3482 32.6963 49.5123 26.2386 49.5787 22.5811Z" fill="url(#paint2_linear_111_40)"/>
<path d="M69.722 0.478516H65.417L25.3237 22.2389C24.7513 22.4764 24.5483 22.7697 24.4384 23.3613C24.3048 23.9277 24.346 24.3486 24.7833 24.8015C25.0474 25.2261 25.3175 25.3048 25.7854 25.4124C26.2532 25.5193 26.5493 25.5245 26.9744 25.235L45.94 14.8281C46.8375 14.3737 48.0517 14.1963 48.9614 14.4101C49.8719 14.6232 50.8717 15.3328 51.5005 16.1101C51.9561 16.8599 52.2354 17.8041 52.2446 18.6697H52.269C52.269 18.6697 52.121 23.5187 51.7966 38.7672L72.1222 4.52281C73.1891 2.7256 71.8559 0.478516 69.722 0.478516Z" fill="url(#paint3_linear_111_40)"/>
<path d="M88.458 44.852C86.602 44.852 85.002 44.5533 83.658 43.956C82.3354 43.3373 81.1194 42.4093 80.01 41.172L83.274 37.94C83.9994 38.772 84.7994 39.4227 85.674 39.892C86.57 40.34 87.6047 40.564 88.778 40.564C89.8447 40.564 90.666 40.372 91.242 39.988C91.8394 39.604 92.138 39.0707 92.138 38.388C92.138 37.7693 91.946 37.268 91.562 36.884C91.178 36.5 90.666 36.1693 90.026 35.892C89.4074 35.6147 88.714 35.348 87.946 35.092C87.1994 34.836 86.4527 34.548 85.706 34.228C84.9594 33.8867 84.266 33.4707 83.626 32.98C83.0074 32.468 82.506 31.8387 82.122 31.092C81.738 30.324 81.546 29.364 81.546 28.212C81.546 26.8253 81.8767 25.6307 82.538 24.628C83.2207 23.6253 84.1594 22.868 85.354 22.356C86.5487 21.8227 87.9247 21.556 89.482 21.556C91.0607 21.556 92.5007 21.8333 93.802 22.388C95.1247 22.9427 96.2127 23.7 97.066 24.66L93.802 27.892C93.1194 27.188 92.426 26.6653 91.722 26.324C91.0394 25.9827 90.2607 25.812 89.386 25.812C88.5114 25.812 87.818 25.9827 87.306 26.324C86.794 26.644 86.538 27.1133 86.538 27.732C86.538 28.308 86.73 28.7773 87.114 29.14C87.498 29.4813 87.9994 29.78 88.618 30.036C89.258 30.292 89.9514 30.548 90.698 30.804C91.466 31.06 92.2234 31.3587 92.97 31.7C93.7167 32.0413 94.3994 32.4787 95.018 33.012C95.658 33.524 96.17 34.1853 96.554 34.996C96.938 35.7853 97.13 36.7667 97.13 37.94C97.13 40.0947 96.362 41.7907 94.826 43.028C93.29 44.244 91.1674 44.852 88.458 44.852ZM102.09 44.5V22.516H106.986V44.5H102.09ZM98.5703 33.108V28.948H110.506V33.108H98.5703ZM118.847 44.82C117.418 44.82 116.138 44.468 115.007 43.764C113.898 43.06 113.012 42.1 112.351 40.884C111.711 39.668 111.391 38.2813 111.391 36.724C111.391 35.1667 111.711 33.78 112.351 32.564C113.012 31.348 113.898 30.388 115.007 29.684C116.138 28.98 117.418 28.628 118.847 28.628C119.892 28.628 120.831 28.8307 121.663 29.236C122.516 29.6413 123.21 30.2067 123.743 30.932C124.276 31.636 124.575 32.4467 124.639 33.364V40.084C124.575 41.0013 124.276 41.8227 123.743 42.548C123.231 43.252 122.548 43.8067 121.695 44.212C120.842 44.6173 119.892 44.82 118.847 44.82ZM119.839 40.404C120.884 40.404 121.727 40.0627 122.367 39.38C123.007 38.676 123.327 37.7907 123.327 36.724C123.327 35.9987 123.178 35.3587 122.879 34.804C122.602 34.2493 122.196 33.8227 121.663 33.524C121.151 33.204 120.554 33.044 119.871 33.044C119.188 33.044 118.58 33.204 118.047 33.524C117.535 33.8227 117.119 34.2493 116.799 34.804C116.5 35.3587 116.351 35.9987 116.351 36.724C116.351 37.428 116.5 38.0573 116.799 38.612C117.098 39.1667 117.514 39.604 118.047 39.924C118.58 40.244 119.178 40.404 119.839 40.404ZM123.135 44.5V40.308L123.871 36.532L123.135 32.756V28.948H127.935V44.5H123.135ZM138.902 44.852C137.302 44.852 135.852 44.5 134.55 43.796C133.249 43.092 132.225 42.1213 131.478 40.884C130.732 39.6467 130.358 38.26 130.358 36.724C130.358 35.1667 130.732 33.78 131.478 32.564C132.246 31.3267 133.281 30.356 134.582 29.652C135.884 28.948 137.345 28.596 138.966 28.596C140.182 28.596 141.292 28.8093 142.294 29.236C143.318 29.6413 144.225 30.26 145.014 31.092L141.878 34.228C141.516 33.8227 141.089 33.524 140.598 33.332C140.129 33.14 139.585 33.044 138.966 33.044C138.262 33.044 137.633 33.204 137.078 33.524C136.545 33.8227 136.118 34.2493 135.798 34.804C135.5 35.3373 135.35 35.9667 135.35 36.692C135.35 37.4173 135.5 38.0573 135.798 38.612C136.118 39.1667 136.556 39.604 137.11 39.924C137.665 40.244 138.284 40.404 138.966 40.404C139.606 40.404 140.172 40.2973 140.662 40.084C141.174 39.8493 141.612 39.5293 141.974 39.124L145.078 42.26C144.268 43.1133 143.35 43.764 142.326 44.212C141.302 44.6387 140.161 44.852 138.902 44.852ZM157.209 44.5L151.769 36.436L157.177 28.948H162.649L156.121 37.364L156.281 35.348L162.969 44.5H157.209ZM147.257 44.5V21.268H152.153V44.5H147.257ZM165.174 44.5V21.908H168.694L170.198 26.42V44.5H165.174ZM180.758 44.5L167.446 27.444L168.694 21.908L182.006 38.964L180.758 44.5ZM180.758 44.5L179.414 39.988V21.908H184.438V44.5H180.758ZM193.151 44.564L186.751 28.948H192.031L196.095 41.332H194.143L198.303 28.948H203.583L196.927 44.564H193.151ZM189.151 51.06L193.823 40.98L196.927 44.564L194.175 51.06H189.151ZM212.357 44.852C210.927 44.852 209.658 44.564 208.549 43.988C207.461 43.3907 206.607 42.58 205.989 41.556C205.37 40.5107 205.061 39.316 205.061 37.972V28.948H209.957V37.908C209.957 38.4413 210.042 38.9 210.213 39.284C210.405 39.668 210.682 39.9667 211.045 40.18C211.407 40.3933 211.845 40.5 212.357 40.5C213.082 40.5 213.658 40.276 214.085 39.828C214.511 39.3587 214.725 38.7187 214.725 37.908V28.948H219.621V37.94C219.621 39.3053 219.311 40.5107 218.693 41.556C218.074 42.58 217.221 43.3907 216.133 43.988C215.045 44.564 213.786 44.852 212.357 44.852Z" fill="black"/>
<defs>
<linearGradient id="paint0_linear_111_40" x1="42.5452" y1="20.0005" x2="42.5421" y2="0.714766" gradientUnits="userSpaceOnUse">
<stop stop-color="#02D6CA"/>
<stop offset="1" stop-color="#02FB95"/>
</linearGradient>
<linearGradient id="paint1_linear_111_40" x1="25.105" y1="36.4285" x2="25.099" y2="-0.357238" gradientUnits="userSpaceOnUse">
<stop stop-color="#01B0FD"/>
<stop offset="1" stop-color="#01FD91"/>
</linearGradient>
<linearGradient id="paint2_linear_111_40" x1="35.2784" y1="62.1433" x2="35.272" y2="22.8576" gradientUnits="userSpaceOnUse">
<stop stop-color="#01B3F9"/>
<stop offset="1" stop-color="#01E2B7"/>
</linearGradient>
<linearGradient id="paint3_linear_111_40" x1="48.3606" y1="38.5719" x2="48.3606" y2="0.714772" gradientUnits="userSpaceOnUse">
<stop stop-color="#00D3CC"/>
<stop offset="1" stop-color="#03FB96"/>
</linearGradient>
</defs>
</svg>
